HIERARCHY
ROOT Hips
{
	OFFSET 0.000000 0.000000 0.000000 
	CHANNELS 6 Xposition Yposition Zposition Zrotation Yrotation Xrotation
	JOINT LeftUpLeg
	{
		OFFSET 1.363060 -1.794630 0.839290 
		CHANNELS 3 Zrotation Yrotation Xrotation
		JOINT LeftLeg
		{
			OFFSET 2.448110 -6.726130 0.000000 
			CHANNELS 3 Zrotation Yrotation Xrotation
			JOINT LeftFoot
			{
				OFFSET 2.562200 -7.039590 0.000000 
				CHANNELS 3 Zrotation Yrotation Xrotation
				JOINT LeftToeBase
				{
					OFFSET 0.157640 -0.433110 2.322550 
					CHANNELS 3 Zrotation Yrotation Xrotation
					End Site
					{
						OFFSET 0.000000 0.000000 0.000000 
					}
				}
			}
		}
	}
	JOINT RightUpLeg
	{
		OFFSET -1.305520 -1.794630 0.839290 
		CHANNELS 3 Zrotation Yrotation Xrotation
		JOINT RightLeg
		{
			OFFSET -2.542530 -6.985550 0.000000 
			CHANNELS 3 Zrotation Yrotation Xrotation
			JOINT RightFoot
			{
				OFFSET -2.568260 -7.056230 0.000000 
				CHANNELS 3 Zrotation Yrotation Xrotation
				JOINT RightToeBase
				{
					OFFSET -0.164730 -0.452590 2.363150 
					CHANNELS 3 Zrotation Yrotation Xrotation
					End Site
					{
						OFFSET 0.000000 0.000000 0.000000 
					}
				}
			}
		}
	}
	JOINT Spine
	{
		OFFSET 0.028270 2.035590 -0.193380 
		CHANNELS 3 Zrotation Yrotation Xrotation
		JOINT Spine1
		{
			OFFSET 0.056720 2.048850 -0.042750 
			CHANNELS 3 Zrotation Yrotation Xrotation
			JOINT Neck1
			{
				OFFSET -0.054170 1.746240 0.172020 
				CHANNELS 3 Zrotation Yrotation Xrotation
				JOINT Head
				{
					OFFSET 0.104070 1.761360 -0.123970 
					CHANNELS 3 Zrotation Yrotation Xrotation
					End Site
					{
						OFFSET 0.000000 0.000000 0.000000 
					}
				}
			}
			JOINT LeftArm
			{
				OFFSET 3.362410 1.200890 -0.311210 
				CHANNELS 3 Zrotation Yrotation Xrotation
				JOINT LeftForeArm
				{
					OFFSET 4.983000 -0.000000 -0.000000 
					CHANNELS 3 Zrotation Yrotation Xrotation
					JOINT LeftHand
					{
						OFFSET 3.483560 -0.000000 -0.000000 
						CHANNELS 3 Zrotation Yrotation Xrotation
						JOINT LeftFingerBase
						{
							OFFSET 0.000000 0.000000 0.000000 
							CHANNELS 3 Zrotation Yrotation Xrotation
							End Site
							{
								OFFSET 0.000000 0.000000 0.000000 
							}
						}
					}
				}
			}
			JOINT RightArm
			{
				OFFSET -3.136600 1.374050 -0.404650 
				CHANNELS 3 Zrotation Yrotation Xrotation
				JOINT RightForeArm
				{
					OFFSET -5.241900 -0.000000 -0.000000 
					CHANNELS 3 Zrotation Yrotation Xrotation
					JOINT RightHand
					{
						OFFSET -3.444170 -0.000000 -0.000000 
						CHANNELS 3 Zrotation Yrotation Xrotation
						JOINT RightFingerBase
						{
							OFFSET 0.000000 0.000000 0.000000 
							CHANNELS 3 Zrotation Yrotation Xrotation
							End Site
							{
								OFFSET 0.000000 0.000000 0.000000 
							}
						}
					}
				}
			}
		}
	}
}
MOTION
Frames: 7
Frame Time: 0.008333
0.383414 16.863363 -1.810240 -1.405944 0.763194 0.967095 -18.879706 0.088127 -5.109712 0.238256 2.726899 4.201186 0.261980 -1.170087 -3.666315 2.847315 -4.059931 1.511177 28.173454 0.697746 6.889217 2.337853 4.273323 -3.206852 -0.677755 -3.258082 -1.046980 -4.133921 -3.103869 -2.262690 5.115458 3.534572 -6.239586 1.450554 -4.067229 15.634265 3.117111 2.349346 13.062707 4.166366 1.167442 9.249166 -10.986607 -1.890364 3.588634 3.036020 -4.231519 -25.884513 12.017760 1.559286 -0.999310 -4.780727 -4.041107 2.559976 15.160109 -0.570935 -2.048136 -10.494151 9.279699 -46.172711 -12.792803 -12.605785 1.279816 2.845754 -0.855100 -0.924098
0.384219 16.860359 -1.812312 -1.382242 0.698862 0.974557 -24.811000 5.307080 -5.504486 -1.491983 -5.643256 3.681344 -5.090463 3.379077 -6.380557 -0.278062 -0.181195 -1.178778 30.807138 -3.134191 -1.553407 -6.921281 3.862859 2.045218 2.087301 5.960953 -8.812656 -2.308269 3.500712 -4.598106 3.706661 4.084656 -14.442896 1.783060 -2.552069 15.761829 0.952743 -3.231251 20.291901 3.818839 1.688626 8.192719 -17.851714 -2.547654 5.376061 9.026207 -8.939758 -32.996329 6.890469 2.937870 3.104324 -3.211851 -4.821736 -0.237726 16.251290 4.594261 1.416254 -16.555008 5.827457 -39.538674 -13.030456 -14.766176 2.725097 1.716670 -3.425704 4.096588
0.383318 16.859610 -1.817252 -1.379972 0.747692 0.969901 -17.741707 4.928588 4.063632 -0.194857 -6.261520 0.459979 -0.643979 -5.060324 -4.892510 1.484751 2.455509 2.408190 27.511749 -5.564890 3.699580 -6.999567 -0.657667 1.927038 1.695521 0.945463 -6.319184 -3.804106 -1.573799 -3.599970 -3.711660 -0.135180 -12.495138 2.623738 1.544409 13.110092 6.548096 3.554665 22.683005 -4.253344 -0.550693 5.621327 -16.523507 1.282284 2.069966 6.975207 -2.327756 -24.332169 10.599403 3.959146 0.433134 3.577437 -4.519809 1.503331 15.920719 2.235638 -2.075546 -12.692586 6.673925 -43.873606 -10.213176 -11.397975 -5.298200 -0.849335 4.932024 -3.184952
0.356057 16.859459 -1.857883 -1.507605 2.088009 1.460795 -18.995626 5.615386 -2.931083 2.313219 -6.473751 1.231672 0.473126 0.854956 -2.113960 -1.513112 -1.029348 -4.458713 27.468107 -2.772585 1.229682 2.325051 -1.688638 2.752743 -2.035186 0.790023 -4.148448 -3.549985 4.535516 0.975341 5.763481 -3.216681 -12.538588 0.968042 -5.339034 17.120493 2.651736 -1.416321 20.974111 -3.872429 3.592116 14.534715 -16.091017 -7.315409 7.052375 8.652199 -2.086880 -30.157365 4.809280 3.538260 -2.698226 3.855192 0.239956 0.613874 16.622437 0.685677 1.830234 -9.022714 12.687649 -43.912737 -13.711931 -11.683813 -0.694892 -0.614987 -3.985976 -1.899988
0.359751 16.856756 -1.922252 -1.278687 2.231196 1.264987 -22.576711 -0.115975 -1.370028 2.897091 -3.631630 3.531656 -0.796844 3.012609 -2.989377 -1.497121 -6.455486 -1.542002 31.194533 0.930388 5.507498 -0.738838 3.553678 0.084912 5.154108 -0.739864 -4.840370 -1.738800 -0.917471 -0.914203 4.414845 3.765465 -13.570056 0.561168 -2.682438 18.539208 5.208563 3.387752 22.354518 -1.734878 4.558670 15.251480 -17.374854 1.556943 0.418569 8.759758 -3.590400 -24.236088 5.583382 1.075567 3.001844 -2.618865 -0.784014 3.866144 13.199517 6.981639 -0.501452 -9.483194 4.220765 -47.382392 -13.331924 -9.619479 -3.696899 -4.584106 -0.726099 -3.915365
0.359407 16.847298 -1.953003 -0.998498 2.128874 0.968043 -21.886622 6.289279 3.249916 4.198005 -5.645890 6.186402 -2.159289 2.616097 -6.580074 0.070699 2.201688 -2.658547 31.216134 2.063443 0.972114 -4.042520 -1.609780 -2.557746 -3.884620 5.864918 -1.887093 0.734854 -2.173809 -4.791715 0.280594 -2.453882 -9.391313 -3.350791 0.007823 17.976126 6.686525 -4.548471 18.131392 1.342429 -1.049996 8.967538 -18.691687 1.435204 6.188635 10.934546 -9.671443 -23.895387 10.580074 2.018920 3.151468 -2.080187 -2.798116 -3.501923 11.386050 6.429067 -4.796805 -16.486709 6.482524 -45.657026 -17.355811 -7.898577 -1.126512 -0.838129 -0.526958 4.613340
0.356616 16.846096 -1.948889 -0.875224 1.924792 0.723241 -16.809496 3.592364 3.459615 -1.850499 1.678043 7.568064 -1.274144 -4.354114 2.360636 1.651436 -5.760287 -0.912849 25.035554 -2.139582 1.217471 -2.538464 -3.690350 -1.067677 -1.858073 -1.562576 -10.816077 2.348056 3.250181 4.680520 4.837426 -2.721227 -13.009036 1.240115 -0.665898 16.773681 1.504503 0.724556 15.467973 -3.607792 4.687595 7.257382 -13.727820 -5.729147 2.394548 5.323924 -8.093914 -27.989066 13.124571 3.114997 -2.469669 -2.070661 -2.943693 -4.777358 13.488615 0.168130 -4.276073 -16.401902 5.264920 -44.079071 -16.171989 -11.661464 -1.036371 -1.184184 4.316773 -1.330578
